<svg width="0" height="0" class="hidden">
  <symbol fill="none" xmlns="http://www.w3.org/2000/svg" viewBox="0 0 104 26" id="Logo">
    <path d="M28.779 22.604c.138.994-.239 1.943-.92 2.538a2.518 2.518 0 0 1-1.843.625c-.009 0-.018 0-.027-.002a2.776 2.776 0 0 1-1.808-.855c-.757-.804-.735-1.802-.726-2.011 0-.1.005-.198.017-.295h-8.218c.011.097.016.195.016.295.01.209.031 1.207-.725 2.01a2.776 2.776 0 0 1-1.808.856c-.01.002-.019.002-.028.002a2.552 2.552 0 0 1-1.433-.33 2.586 2.586 0 0 1-.41-.293v-.002a2.853 2.853 0 0 1-.92-2.538h-2.96l.06-.22 1.105-4.068.242-.011 2.828-.126a.228.228 0 1 0-.02-.455l-2.683.119-.24.011.402-1.482.233.02 2.271.188h.02a.228.228 0 0 0 .02-.455l-2.189-.181-.233-.02.407-1.5.216.083 2.155.824a.23.23 0 0 0 .297-.13.228.228 0 0 0-.131-.295l-2.2-.843-.216-.082L12.912.802l2.583 7.88c.608-.306 2.025-.932 3.86-.904h.016c1.834-.028 3.251.598 3.859.903L25.814.802l3.581 13.18-.216.082-2.2.842a.228.228 0 1 0 .166.425l2.155-.824.216-.083.408 1.5-.234.02-2.188.18a.23.23 0 0 0-.21.247.23.23 0 0 0 .229.209h.02l2.271-.188.234-.02.401 1.482-.24-.011-2.683-.119a.228.228 0 1 0-.02.455l2.828.126.242.01 1.105 4.069.06.22h-2.96Z" fill="#F4E041"></path>
    <path d="m32.038 22.832-.06-.22-.062-.228-1.102-4.058-.24-.01-.242-.011 1.106 4.07h-2.924l.036.26a2.644 2.644 0 0 1-.597 2.089 2.333 2.333 0 0 1-.608.507 2.299 2.299 0 0 1-1.328.308 2.525 2.525 0 0 1-1.668-.785c-.643-.683-.678-1.518-.663-1.855 0-.1.004-.187.014-.27l.03-.254h-8.735l.03.255c.009.082.015.17.015.278.014.328-.022 1.163-.664 1.846a2.526 2.526 0 0 1-1.902.79 2.3 2.3 0 0 1-1.092-.311h-.001a1.926 1.926 0 0 1-.315-.22 2.333 2.333 0 0 1-.295-.289 2.644 2.644 0 0 1-.596-2.09l.035-.259H7.287l1.106-4.07-.242.01-.24.011-1.103 4.058-.062.229-.06.219h3.006c-.075 1.34.703 2.58 1.923 3.01 1.062.377 2.307.064 3.098-.777.76-.81.803-1.792.787-2.166l-.001-.067h7.726v.057c-.017.384.026 1.366.787 2.176.568.604 1.369.935 2.169.935.314 0 .628-.052.929-.158 1.22-.43 1.998-1.67 1.922-3.01h3.006ZM8.68 16.372l-.234-.02-.41 1.512.242-.01.24-.011.395-1.452-.233-.019ZM25.835 0l-.241.73-2.156 6.573-.346 1.057c-.876-.408-2.174-.838-3.721-.81h-.013a8.55 8.55 0 0 0-3.725.81l-.347-1.057c-.718-2.19-1.436-4.381-2.156-6.572L12.89 0 9.114 13.898l.216.084.216.082 3.386-12.462c.64 1.948 1.278 3.895 1.915 5.842l.513 1.56.24-.12c.823-.416 2.148-.908 3.755-.879h.02c1.61-.027 2.926.463 3.75.878l.24.121.512-1.56c.637-1.947 1.276-3.894 1.916-5.842l3.386 12.461.216-.082.216-.083L25.835 0ZM8.993 14.34l-.425 1.565.234.019.233.02.39-1.437-.216-.083-.216-.083Zm20.739.002-.216.082-.216.083.39 1.436.234-.019.232-.018-.424-1.564Zm.546 2.01-.232.02-.234.02.395 1.45.24.012.241.01-.41-1.511Z" fill="#000" fill-opacity=".87"></path>
    <path d="M21.187 14.95a.486.486 0 0 1-.49-.485v-2.937c0-.268.22-.485.49-.485s.489.217.489.485v2.937a.487.487 0 0 1-.49.484ZM17.826 14.437a.489.489 0 0 1-.54-.431l-.237-2.217a.486.486 0 0 1 .435-.533.489.489 0 0 1 .538.43l.239 2.217a.486.486 0 0 1-.435.534ZM11.875 15.201a.23.23 0 0 1-.297.13l-2.154-.824-.217-.083-.216-.083-3.13-1.199a.227.227 0 0 1-.133-.295.231.231 0 0 1 .298-.13l3.086 1.181.216.083.216.082 2.2.843a.227.227 0 0 1 .131.295ZM11.43 16.37a.229.229 0 0 1-.229.21h-.02l-2.27-.189-.234-.019-.233-.02-3.371-.279a.227.227 0 1 1 .039-.453l3.454.285.233.019.234.02 2.188.18c.127.01.22.122.21.247ZM11.439 17.942a.228.228 0 0 1-.22.237l-2.828.126-.241.011-.241.01-2.814.126h-.01a.228.228 0 0 1-.01-.456l2.96-.131.241-.01.24-.012 2.682-.119a.227.227 0 0 1 .24.218ZM32.861 13.142l-3.131 1.2-.216.082-.216.083-2.154.824a.232.232 0 0 1-.298-.13.228.228 0 0 1 .132-.295l2.2-.843.216-.082.215-.083 3.087-1.18a.232.232 0 0 1 .298.13.229.229 0 0 1-.133.294ZM33.857 15.827a.23.23 0 0 1-.211.246l-3.371.28-.233.02-.233.019-2.272.188h-.02a.23.23 0 0 1-.229-.209.23.23 0 0 1 .21-.246l2.189-.181.233-.02.233-.018 3.455-.286a.228.228 0 0 1 .249.207ZM33.865 18.234a.23.23 0 0 1-.23.218h-.01l-2.815-.126-.239-.01-.242-.011-2.829-.126a.229.229 0 0 1-.22-.237.228.228 0 0 1 .241-.218l2.683.119.24.011.24.01 2.961.131a.228.228 0 0 1 .22.239Z" fill="#000" fill-opacity=".87"></path>
    <path d="M25.92 23.58a3.337 3.337 0 0 1 .094 1.96l-.093-1.96Z" fill="#fff"></path>
    <path d="M26.015 25.767a.227.227 0 0 1-.223-.283 3.158 3.158 0 0 0-.089-1.83.227.227 0 0 1 .143-.289.23.23 0 0 1 .293.142 3.61 3.61 0 0 1 .1 2.088.232.232 0 0 1-.224.172Z" fill="#000" fill-opacity=".87"></path>
    <path d="M27.422 23.49c.14.224.263.497.301.81a1.75 1.75 0 0 1-.151.945l-.15-1.756Z" fill="#fff"></path>
    <path d="M27.572 25.472a.227.227 0 0 1-.21-.32c.12-.274.165-.551.131-.825-.03-.24-.12-.48-.268-.72a.226.226 0 0 1 .075-.313.231.231 0 0 1 .316.074c.185.295.296.599.334.905.044.355-.012.713-.168 1.063a.23.23 0 0 1-.21.136Z" fill="#000" fill-opacity=".87"></path>
    <path d="M12.803 23.58a3.343 3.343 0 0 0-.094 1.96l.094-1.96Z" fill="#fff"></path>
    <path d="M12.707 25.767a.23.23 0 0 1-.223-.173 3.601 3.601 0 0 1 .1-2.089.231.231 0 0 1 .292-.141c.12.041.184.171.143.29a3.158 3.158 0 0 0-.089 1.83.228.228 0 0 1-.168.275.186.186 0 0 1-.055.008Z" fill="#000" fill-opacity=".87"></path>
    <path d="M11.302 23.49a1.983 1.983 0 0 0-.302.81c-.046.37.037.69.152.945l.15-1.756Z" fill="#fff"></path>
    <path d="M11.15 25.472a.231.231 0 0 1-.21-.136 1.98 1.98 0 0 1-.168-1.063c.038-.306.15-.61.334-.905a.231.231 0 0 1 .316-.074.226.226 0 0 1 .075.314c-.148.237-.238.48-.268.72-.033.273.01.55.133.823a.227.227 0 0 1-.211.32ZM8.355 22.799H.245c-.135 0-.245-.088-.245-.194 0-.107.11-.195.245-.195h8.11c.135 0 .245.088.245.195 0 .106-.11.194-.245.194ZM37.884 22.84H30.26a.23.23 0 0 1-.23-.229.23.23 0 0 1 .23-.227h7.625a.23.23 0 0 1 .23.227.229.229 0 0 1-.23.229ZM21.704 18.644c-.166.427-.549.888-1.035.958-.45.063-.865-.176-1.163-.546-.029.078-.064.16-.11.24-.075.133-.477.787-1.147.787h-.018c-.638-.011-1.191-.587-1.288-1.34a.228.228 0 0 1 .2-.255.23.23 0 0 1 .257.197c.074.582.484.936.839.942h.009c.422 0 .714-.496.746-.553.159-.283.155-.572.126-.763-.01-.035-.02-.07-.028-.105-.443.05-.825-.103-.896-.384-.08-.319.276-.681.795-.809.52-.128 1.006.027 1.086.347.067.263-.162.555-.535.721.011.042.021.093.03.147.187.614.664.973 1.032.922.286-.04.554-.368.67-.669.099-.255.085-.496.056-.652a.23.23 0 0 1 .186-.265.231.231 0 0 1 .268.183c.039.215.057.543-.08.897ZM43.807 18.588c-.394 0-.59-.108-.59-.325V9.335h-2.833c-.099 0-.172-.034-.221-.103-.05-.07-.074-.183-.074-.34v-.237c0-.157.024-.27.074-.34.049-.069.122-.103.22-.103h6.92c.109 0 .183.034.222.103.05.07.074.183.074.34v.237c0 .157-.025.27-.074.34-.04.069-.113.103-.221.103h-2.789v8.928c0 .217-.197.325-.59.325h-.118Zm5.973-.03c-.157 0-.27-.034-.34-.103-.068-.069-.103-.182-.103-.34v-9.46c0-.157.035-.27.104-.34.068-.069.182-.103.339-.103h5.15c.108 0 .181.034.22.103.05.07.074.183.074.34v.237c0 .157-.024.27-.073.34-.04.069-.114.103-.222.103h-4.293v3.37h3.85c.109 0 .183.035.222.104.05.069.074.182.074.34v.236c0 .158-.025.271-.074.34-.04.069-.113.104-.221.104h-3.851v3.606h4.308c.108 0 .182.035.221.104.05.069.074.182.074.34v.236c0 .158-.024.271-.074.34-.039.069-.113.103-.22.103H49.78Zm9.766.09c-.59 0-1.136-.07-1.638-.208-.501-.138-.88-.305-1.136-.502-.187-.138-.28-.261-.28-.37 0-.118.064-.28.192-.488.137-.207.245-.31.324-.31.04 0 .143.05.31.148.305.167.63.31.974.428.354.119.772.178 1.254.178.57 0 1.033-.158 1.387-.473.364-.325.546-.75.546-1.271 0-.365-.099-.665-.295-.902a2.064 2.064 0 0 0-.723-.576 11.678 11.678 0 0 0-1.21-.533 11.768 11.768 0 0 1-1.357-.62 2.445 2.445 0 0 1-.856-.828c-.236-.375-.354-.862-.354-1.463 0-.533.132-1.006.398-1.42a2.703 2.703 0 0 1 1.15-.96c.502-.237 1.078-.355 1.727-.355.334 0 .708.05 1.121.148.414.089.733.212.96.37.196.118.295.246.295.384 0 .108-.064.266-.192.473-.118.207-.212.31-.28.31a.564.564 0 0 1-.222-.074 3.086 3.086 0 0 1-.177-.103 3.28 3.28 0 0 0-1.534-.385c-.57 0-1.033.148-1.387.444-.345.295-.517.704-.517 1.227 0 .335.084.606.251.813.177.207.374.364.59.473.227.098.615.256 1.166.473.59.226 1.072.448 1.446.665.374.207.688.512.944.916.266.394.398.902.398 1.523 0 .886-.295 1.586-.885 2.098-.59.513-1.387.77-2.39.77Zm7.79-.06c-.393 0-.59-.108-.59-.325V9.335h-2.833c-.098 0-.172-.034-.22-.103-.05-.07-.075-.183-.075-.34v-.237c0-.157.025-.27.074-.34.05-.069.123-.103.221-.103h6.92c.108 0 .182.034.222.103.049.07.073.183.073.34v.237c0 .157-.024.27-.073.34-.04.069-.114.103-.222.103h-2.788v8.928c0 .217-.197.325-.59.325h-.119Zm8.098 0c-.393 0-.59-.108-.59-.325V9.335H72.01c-.098 0-.172-.034-.221-.103-.05-.07-.074-.183-.074-.34v-.237c0-.157.025-.27.074-.34.049-.069.123-.103.221-.103h6.92c.108 0 .182.034.221.103.05.07.074.183.074.34v.237c0 .157-.025.27-.074.34-.039.069-.113.103-.221.103h-2.789v8.928c0 .217-.196.325-.59.325h-.118Zm4.305 0c-.423 0-.634-.084-.634-.251a.71.71 0 0 1 .044-.207l3.497-9.711c.059-.158.256-.237.59-.237h.428c.354 0 .55.079.59.237l3.497 9.726c.03.069.044.133.044.192 0 .167-.211.251-.634.251h-.118c-.344 0-.541-.079-.59-.236l-.87-2.425h-4.339l-.84 2.425c-.05.157-.247.236-.59.236h-.075Zm5.445-3.784-1.55-4.405a7.501 7.501 0 0 1-.177-.857h-.03c-.078.394-.152.68-.22.857l-1.55 4.405h3.527Zm6.393 3.843c-.59 0-1.136-.069-1.638-.207-.502-.138-.88-.305-1.136-.502-.187-.138-.28-.261-.28-.37 0-.118.063-.28.191-.488.138-.207.246-.31.325-.31.04 0 .142.05.31.148.305.167.63.31.974.428.354.119.772.178 1.254.178.57 0 1.033-.158 1.387-.473.364-.325.546-.75.546-1.271 0-.365-.099-.665-.296-.902a2.064 2.064 0 0 0-.722-.576 11.674 11.674 0 0 0-1.21-.533 11.782 11.782 0 0 1-1.358-.62 2.445 2.445 0 0 1-.856-.828c-.236-.375-.354-.862-.354-1.463 0-.533.133-1.006.399-1.42a2.704 2.704 0 0 1 1.15-.96c.502-.237 1.078-.355 1.727-.355.334 0 .708.05 1.121.148.413.089.733.212.96.37.196.118.294.246.294.384 0 .108-.064.266-.191.473-.119.207-.212.31-.28.31a.565.565 0 0 1-.222-.074 3.161 3.161 0 0 1-.177-.103 3.28 3.28 0 0 0-1.535-.385c-.57 0-1.032.148-1.387.444-.344.295-.516.704-.516 1.227 0 .335.084.606.25.813.178.207.375.364.591.473.226.098.615.256 1.166.473.59.226 1.072.448 1.446.665.373.207.688.512.944.916.266.394.398.902.398 1.523 0 .886-.295 1.586-.885 2.098-.59.513-1.387.77-2.39.77Zm5.798-.059c-.393 0-.59-.108-.59-.325V8.507c0-.216.197-.325.59-.325h.118c.394 0 .59.109.59.325v4.523h.06l3.629-4.64c.108-.139.374-.208.797-.208h.147c.168 0 .296.02.384.06.089.029.133.073.133.132 0 .089-.049.188-.148.296l-3.688 4.612 4.47 4.863c.089.098.133.177.133.236 0 .079-.049.133-.147.163-.099.03-.266.044-.502.044h-.177c-.217 0-.389-.01-.517-.03a.492.492 0 0 1-.295-.162l-4.22-4.76h-.058v4.627c0 .217-.197.325-.59.325h-.119Z" fill="#000" fill-opacity=".87"></path>
  </symbol>
  <symbol fill="none" xmlns="http://www.w3.org/2000/svg" viewBox="0 0 70 70" id="photo-cover">
    <circle cx="35" cy="35" r="35" fill="#fff"></circle>
    <path d="M34.952 70C15.63 70.002-.075 54.242 0 34.93.078 15.579 15.724-.034 35.005 0 54.359.036 69.944 15.593 70 34.937 70.057 54.304 54.368 70 34.952 70ZM11.244 57.555c12.905 13.766 34.916 13.51 47.47.01-.264-.307-.516-.634-.806-.926-1.307-1.314-2.855-2.302-4.527-3.047-2.185-.974-4.436-1.8-6.643-2.725-1.046-.44-2.091-.902-3.074-1.464-1.122-.639-1.849-1.6-1.881-2.971a146.288 146.288 0 0 0-.112-3.323 2.773 2.773 0 0 1 .61-1.915c1.703-2.205 2.59-4.709 2.607-7.503.002-.439.185-.705.516-.966.738-.585 1.393-1.274 1.591-2.227a28.13 28.13 0 0 0 .461-3.105c.08-.847-.012-1.675-1.09-1.764.15-1.28.35-2.462.42-3.65.141-2.426-.122-4.797-1.344-6.964-1.053-1.866-2.64-2.89-4.811-2.973-.288-.011-.583-.1-.858-.195-2.75-.945-5.591-1.234-8.422-.67-5.511 1.099-8.809 5.836-8.146 11.475.115.974.3 1.939.464 2.983-.756.04-1.2.475-1.186 1.195.04 2.14.079 4.304 1.972 5.814.474.378.594.853.643 1.411.068.801.16 1.604.288 2.398.299 1.864 1.386 3.353 2.361 4.899.242.383.438.866.456 1.31.048 1.226 0 2.456-.027 3.683-.027 1.231-.592 2.182-1.598 2.864-.47.318-.95.64-1.47.86a93.461 93.461 0 0 1-3.756 1.487c-2.61.983-5.194 2.016-7.514 3.603-.972.665-1.87 1.404-2.594 2.396Z" fill="#D0CFCF"></path>
  </symbol>
  <symbol fill="none" xmlns="http://www.w3.org/2000/svg" viewBox="0 0 328 290" id="success-image">
    <path d="M321.927 267.839h-25.843v.194h25.843v-.194ZM229.324 269.945h-6.781v.194h6.781v-.194ZM295.304 260.621H280.33v.194h14.974v-.194ZM45.513 261.926h-33.7v.194h33.7v-.194ZM57.405 261.926h-4.94v.194h4.94v-.194ZM146.559 265.205H73.463v.194h73.096v-.194Z" fill="#EBEBEB"></path>
    <path d="M156.106 25.234c-11.345 12.549-16.963 29.643-16.003 46.505.959 16.862 7.202 33.009 14.801 48.106 6.656 13.225 14.607 28.222 9.161 41.983-3.043 7.693-9.98 13.389-17.65 16.559-7.67 3.17-16.081 4.087-24.376 4.499-14.138.707-28.488.062-42.244 3.365-13.756 3.302-27.302 11.461-32.623 24.523-6.266 15.393.85 33.809 13.397 44.741 12.555 10.933 29.393 15.627 45.911 17.95a202.322 202.322 0 0 0 69.718-2.393c18.36-3.878 36.424-10.475 51.405-21.734 14.973-11.259 26.662-27.546 29.869-45.962 3.199-18.415-3.012-38.781-17.666-50.452-6.094-4.857-13.444-8.175-18.789-13.839-5.345-5.665-8.06-15.098-3.097-21.097 3.277-3.963 8.801-5.175 13.92-5.789 25.179-2.991 53.074 2.176 74.134-11.896 12.055-8.058 19.858-21.796 21.575-36.156 1.716-14.36-1.397-29.9-10.48-41.182-24.758-30.716-130.641-31.268-160.963 2.269Z" fill="#E5F7FF"></path>
    <path d="M165.949 290c83.554 0 151.288-3.938 151.288-8.796 0-4.858-67.734-8.796-151.288-8.796-83.554 0-151.288 3.938-151.288 8.796 0 4.858 67.734 8.796 151.288 8.796Z" fill="#E5F7FF"></path>
    <path d="m153.521 157.896 1.95-11.212 3.831 1.111-5.781 10.101ZM154.808 161.478l10.971-3.155-1.522-3.675-9.449 6.83ZM156.759 157.267l6.25-11.772 4.205 2.914-10.455 8.858ZM53.504 174.921h-4.94a.386.386 0 0 1-.39-.389c0-.218.172-.388.39-.388h4.94c.219 0 .39.17.39.388a.386.386 0 0 1-.39.389ZM45.28 174.921H20.522a.386.386 0 0 1-.39-.389c0-.218.171-.388.39-.388h24.75c.219 0 .39.17.39.388a.384.384 0 0 1-.382.389ZM133.061 219.881a.393.393 0 0 1-.266-.101.391.391 0 0 1-.023-.552l2.309-2.502a.402.402 0 0 1 .554-.023.39.39 0 0 1 .024.551l-2.31 2.503a.38.38 0 0 1-.288.124ZM111.907 239.796a.402.402 0 0 1-.351-.21.386.386 0 0 1 .172-.521c7.233-3.644 18.688-17.273 18.805-17.413a.387.387 0 0 1 .593.497c-.476.568-11.681 13.886-19.055 17.608a.342.342 0 0 1-.164.039Z" fill="#00BDD3"></path>
    <path d="m168.055 235.538 5.571-4.592-14.029-13.257-5.985 5.09 14.443 12.759Z" fill="#F6B69E"></path>
    <path d="M178.136 229.182c-.374-.233-1.139-.124-1.927.093-.375.109-.765.233-1.108.358-.273.101-.523.202-.734.287-.312.132-.538.233-.616.272-.07.016-.117.085-.125.163-.008.023.008.055.024.078a.16.16 0 0 0 .109.078c.788.209 1.599.341 2.419.404.398.054.811.023 1.193-.086.024-.008.039-.008.055-.015.219-.07.437-.164.632-.28a.99.99 0 0 0 .367-.863.587.587 0 0 0-.289-.489Zm-.078.505a.593.593 0 0 1-.25.583c-.148.124-.359.202-.632.256-.265.055-.585.07-.952.047a10.792 10.792 0 0 1-1.482-.187l-.367-.07a9.822 9.822 0 0 1 2.076-.722 9.549 9.549 0 0 1 1.155-.187.67.67 0 0 1 .327.078c.086.046.133.124.125.202Z" fill="#00BDD3"></path>
    <path d="M175.585 226.26a1.342 1.342 0 0 0-.889.567 1.32 1.32 0 0 0-.156.295c-.469 1.003-.227 2.518-.172 2.798a.1.1 0 0 1 .008.039.157.157 0 0 0 .117.132c.031.015.07.023.109.007.023 0 .047-.015.07-.038.133-.109.273-.257.429-.436a6.29 6.29 0 0 0 .664-.932c.483-.785.827-1.671.616-2.129-.086-.179-.289-.389-.796-.303Zm.468.458c.133.303-.125.995-.522 1.679-.258.435-.554.855-.851 1.165-.062-.489-.125-1.422.117-2.113.047-.156.117-.303.203-.42.133-.186.32-.334.538-.396l.11-.016c.327-.054.39.063.405.101Z" fill="#00BDD3"></path>
    <path d="m172.901 230.62-6.991 3.512a.61.61 0 0 0-.328.73l2.06 6.512c.226.637.928.971 1.576.746.039-.016.086-.031.125-.047 11.977-4.188 15.645-7.156 16.901-7.832 3.566-1.935 1.56-4.453.234-4.142-5.969 1.422-7.975 1.057-10.557.388-1.381-.209-2.599-.077-3.02.133Z" fill="#0E1F3D"></path>
    <path opacity=".2" d="m159.597 217.697 7.108 6.27-5.992 5.09-7.101-6.271 5.985-5.089Z" fill="#000"></path>
    <path d="m157.388 229.011 8.935-8.205-1.967-3.443-10.331 8.835 3.363 2.813Z" fill="#00BDD3"></path>
    <path opacity=".5" d="m157.388 229.011 8.935-8.205-1.967-3.443-10.331 8.835 3.363 2.813Z" fill="#fff"></path>
    <path d="m162.952 218.567-1.193 1.026-1.787 1.53-1.069.902-3.114 2.665-.6.505s-12.727-7.141-19.812-13.241c-4.853-4.18-5.29-5.734-5.797-5.345-6.843 5.182-27.099 23.101-38.577 32.425-.374.039-.741.078-1.124.101-6.133.451-10.955-.225-14.7-1.647-.039-4.958 4.221-16.535 4.572-17.654 0 0 16.94-16.769 44.383-30.942.273-.14.554-.249.827-.365.359-.155.71-.303 1.076-.435 1.436-.544 2.841-.878 4.206-.948 1.225-.062 2.419.155 3.566.559a13.73 13.73 0 0 1 1.904.832c.546.272 1.077.59 1.592.917.85.536 1.669 1.134 2.442 1.725 1.748 1.344 15.005 18.353 22.136 26.201v.008c.375.443.734.831 1.069 1.181Z" fill="#00BDD3"></path>
    <path opacity=".1" d="m162.952 218.567-1.193 1.026-1.787 1.53-1.069.902-3.114 2.665-.6.505s-12.727-7.141-19.812-13.241c-4.853-4.18-5.29-5.734-5.797-5.345-6.843 5.182-27.099 23.101-38.577 32.425-.374.039-.741.078-1.124.101-6.133.451-10.955-.225-14.7-1.647-.039-4.958 4.221-16.535 4.572-17.654 0 0 16.94-16.769 44.383-30.942.273-.14.554-.249.827-.365.359-.155.71-.303 1.076-.435 1.436-.544 2.841-.878 4.206-.948 1.225-.062 2.419.155 3.566.559a13.73 13.73 0 0 1 1.904.832c.546.272 1.077.59 1.592.917.85.536 1.669 1.134 2.442 1.725 1.748 1.344 15.005 18.353 22.136 26.201v.008c.375.443.734.831 1.069 1.181Z" fill="#000"></path>
    <path d="M72.558 146.987c1.07 4.841 2.193 11.905-1.14 15.223a107.671 107.671 0 0 0 14.81 20.125c7.312-12.658.383-20.483.383-20.483-5.478-1.165-5.392-3.364-4.534-7.156l-9.519-7.709Z" fill="#F6B69E"></path>
    <path d="M68.032 162.823a6.135 6.135 0 0 1 2.372-3.232c1.093-.84 12.454-.964 15.41 0a7.43 7.43 0 0 1 4.128 3.24l-21.91-.008Z" fill="#00BDD3"></path>
    <path d="m120.444 182.094 2.941-1.337.149 4.771s-1.374 1.22-2.88 1.687c-1.443.443-2.816-.878-2.458-2.339a4.167 4.167 0 0 1 2.248-2.782Z" fill="#F6B69E"></path>
    <path d="m127.137 182.109-.156 1.749a1.233 1.233 0 0 1-.967 1.111l-2.513.559-.148-4.771 2.552.039a1.213 1.213 0 0 1 1.232 1.205v.108ZM83.138 195.668c4.417 2.168 9.832 3.412 15.146 2.518 6.257-1.049 17.158-7.304 21.902-10.894l-1.6-2.37c-2.364.505-21.683 10.28-34.168 1.438-2.325-1.648-11.454-8.431-14.685-8.291-5.235.233-4.783 5.695-2.536 7.972 2.645 2.657 12.329 7.856 15.941 9.627Z" fill="#F6B69E"></path>
    <g opacity=".2" fill="#000">
      <path opacity=".2" d="M126.982 183.858a1.25 1.25 0 0 1-.967 1.111l-2.497.559v.008s-1.373 1.22-2.872 1.686a1.62 1.62 0 0 1-.46.078l-.008.008c-4.744 3.589-15.637 9.837-21.894 10.886-5.314.886-10.73-.35-15.146-2.526-3.612-1.771-13.311-6.97-15.94-9.627-2.248-2.277-2.7-7.731 2.535-7.972 3.223-.14 12.36 6.643 14.685 8.291 11.907 8.43 30.025-.07 33.732-1.314.007-.054.015-.116.031-.171a4.183 4.183 0 0 1 2.247-2.789l2.91-1.321.032-.008 2.528.031a1.213 1.213 0 0 1 1.225 1.212v.101l-.141 1.757Z"></path>
      <path opacity=".2" d="m123.376 180.757-.023.008v-.008h.023Z"></path>
    </g>
    <path d="M99.5 170.632c6.625 14.538-8.738 18.688-1.7 42.527l-33.396.801c.226-12.775 4.783-10.032-1.225-34.05-.507-2.036-1.358-7.871.82-13.186.85-2.067 2.356-3.823 4.33-4.888 2.466-1.329 13.327-.287 18.282.039 5.368-.746 11.907 6.939 12.89 8.757Z" fill="#00BDD3"></path>
    <path opacity=".5" d="M99.5 170.632c6.625 14.538-8.738 18.688-1.7 42.527l-33.396.801c.226-12.775 4.783-10.032-1.225-34.05-.507-2.036-1.358-7.871.82-13.186.85-2.067 2.356-3.823 4.33-4.888 2.466-1.329 13.327-.287 18.282.039 5.368-.746 11.907 6.939 12.89 8.757Z" fill="#fff"></path>
    <path d="M93.118 141.789c-.093.637.164 1.157.562 1.212.398.054.804-.389.89-1.003.093-.613-.164-1.157-.562-1.212-.398-.046-.804.396-.89 1.003Z" fill="#0E1F3D"></path>
    <path d="m93.828 140.802 1.529-.21c0-.008-.92 1.033-1.53.21Z" fill="#0E1F3D"></path>
    <path d="M93.22 142.628s.655 2.782 1.622 4.204c-.92.637-2.247.093-2.247.093l.624-4.297Z" fill="#A02724"></path>
    <path d="M95.326 137.516a.379.379 0 0 0 .227-.28.362.362 0 0 0-.305-.412 3.611 3.611 0 0 0-3.168.995.366.366 0 0 0-.023.513c.14.148.367.155.515.023a.325.325 0 0 0 .047-.054 2.91 2.91 0 0 1 2.52-.754c.062.007.133 0 .187-.031Z" fill="#0E1F3D"></path>
    <path d="M72.909 136.761c-.632 7.576-1.062 10.762 2.184 15.168 4.885 6.628 14.373 5.758 17.252-1.484 2.606-6.512 3.207-17.802-3.737-21.858-4.947-2.922-11.33-1.298-14.271 3.621a10.23 10.23 0 0 0-1.428 4.553Z" fill="#F6B69E"></path>
    <path d="M92.517 149.987a4.148 4.148 0 0 1-1.264-1.85c-.023-.077.023-.163.11-.194a.151.151 0 0 1 .187.109c.226.629.6 1.181 1.084 1.624l-.117.311ZM67.486 126.908c-2.903 3.916-4.222 4.934-.632 15.354 1.443 4.188 5.633 9.736 7.67 10.241 3.651.917 7.202-1.639 9.948-4.211 2.404-2.254 4.705-4.686 6.165-7.631 1.459-2.945 1.997-6.472.795-9.526-1.31-3.318-5.938-6.279-9.402-7.009-4.073-.855-12.133-.474-14.544 2.782Z" fill="#0E1F3D"></path>
    <path d="M90.237 141.307s.913 1.562-.241 2.727l.023-2.082.218-.645Z" fill="#0E1F3D"></path>
    <path d="M90.223 141.307s.335 2.393-1.678 3.287l1.085-2.588.593-.699ZM76.826 151.617s-2.216 1.003-1.896 3.171l1.615-2.293.281-.878Z" fill="#0E1F3D"></path>
    <path d="M76.912 151.664s-1.685 1.741-.577 3.644l.647-2.727-.07-.917ZM93.274 138.183c.788-.808 1.591-1.632 2.169-2.603.585-.971.936-2.121.765-3.232-.227-1.446-1.32-2.635-2.59-3.365-1.273-.723-2.732-1.049-4.168-1.368-.702-.155-1.49-.303-2.106.07-.601.358-.859 1.111-.82 1.803.032.692.312 1.344.562 1.989.991 2.526 1.615 5.121 2.091 7.778.242 1.345.055 2.23 1.39 1.718.889-.35 2.028-2.091 2.707-2.79Z" fill="#0E1F3D"></path>
    <path d="M82.772 141.921a6.614 6.614 0 0 0 1.725 4.763c1.584 1.717 3.597.591 4.174-1.539.53-1.911.328-5.105-1.748-6.022-2.075-.924-4.041.661-4.15 2.798ZM171.271 239.034l6.023-5.851-11.657-14.6-7.288 4.281 12.922 16.17Z" fill="#F6B69E"></path>
    <path d="M183.443 231.381c-.671-.233-2.045.513-3.082 1.173-.266.163-.5.326-.703.466l-.015.008-.102.078c-.234.163-.405.287-.468.334a.173.173 0 0 0-.094.194.202.202 0 0 0 .172.14c.718.031 1.436.008 2.154-.07.164-.016.32-.031.476-.054a3.002 3.002 0 0 0 1.451-.498 2.6 2.6 0 0 0 .429-.334 1.05 1.05 0 0 0 .195-.987.677.677 0 0 0-.413-.45Zm.046.559a.674.674 0 0 1-.124.668c-.203.249-.609.451-1.186.591a8.711 8.711 0 0 1-1.616.218c-.249.007-.515.023-.788.023.086-.07.172-.132.266-.194.062-.047.124-.086.187-.133a10.44 10.44 0 0 1 2.731-1.359.665.665 0 0 1 .367.007c.078.024.14.094.163.179Z" fill="#00BDD3"></path>
    <path d="M180.102 228.902a1.4 1.4 0 0 0-.796.793c-.491 1.196.234 3.038.359 3.325 0 .008 0 .008.008.008 0 .016 0 .023.008.023a.2.2 0 0 0 .156.117.2.2 0 0 0 .117-.016.132.132 0 0 0 .062-.046c.008-.016.016-.016.024-.024.109-.139.226-.318.327-.528.578-1.08 1.116-2.883.64-3.504-.14-.179-.398-.35-.905-.148Zm-.195 3.675c-.211-.613-.585-1.919-.242-2.727.094-.225.258-.42.476-.536l.109-.055c.336-.132.422-.015.453.024.335.45-.187 2.292-.796 3.294Z" fill="#00BDD3"></path>
    <path opacity=".2" d="m165.021 217.689 5.493 7.001-7.428 4.118-5.579-6.814 7.514-4.305Z" fill="#000"></path>
    <path d="m64.1 211.426-.773 3.015c-.117.241.171.467.554.459l34.394-.808c.305-.016.546-.164.562-.35l-.858-3.163c.023-.202-.25-.373-.578-.365l-32.748.956a.602.602 0 0 0-.554.256Z" fill="#0E1F3D"></path>
    <path d="m94.703 214.449-.906.093c-.179-.008-.327-.054-.327-.163l-.016-3.893c0-.109.148-.218.328-.241l.905-.101c.18.008.328.055.328.171l.015 3.893c-.008.109-.148.218-.328.241ZM82.39 214.605l-.906.093c-.179-.008-.32-.054-.327-.163l-.008-3.893c0-.109.148-.218.328-.241l.897-.101c.18.008.328.054.328.171l.015 3.893c0 .124-.148.217-.327.241Z" fill="#00BDD3"></path>
    <path d="m82.39 214.605-.906.093c-.179-.008-.32-.054-.327-.163l-.008-3.893c0-.109.148-.218.328-.241l.897-.101c.18.008.328.054.328.171l.015 3.893c0 .124-.148.217-.327.241Z" fill="#00BDD3"></path>
    <path d="m169.632 220.821-1.522.855-.007.007-2.614 1.469-2.349 1.313-.008.008-2.411 1.352v.008l-.92.52s-.211-.147-.578-.419c-.14-.101-.304-.218-.491-.358-.57-.427-1.374-1.025-2.302-1.764v-.007c-4.854-3.816-13.491-11.329-16.058-18.152-1.662 1.974-3.652 4.445-5.93 7.18-9.809 11.788-25.063 28.424-43.392 30.592-.374.054-.74.085-1.123.116-6.125.529-10.955-.085-14.716-1.46-9.512-3.466-12.165-11.796-11.51-18.875v-.023c.055-3.31.71-9.216.71-9.216l34.7.039c4.892-5.913 14.7-15.175 24.734-21.018.234-.148.476-.288.718-.412.297-.179.601-.334.898-.498 3.261-1.779 6.523-3.154 9.613-3.9a24.815 24.815 0 0 1 2.036-.404 19.244 19.244 0 0 1 2.076-.202v.007c4.751-.217 8.879 1.547 11.68 6.271l18.259 26.233.507.738ZM150.906 184.915l-38.343 1.577 1.124-24.298 38.342-1.577-1.123 24.298Z" fill="#00BDD3"></path>
    <path d="m150.461 186.834-37.788 1.554a1.746 1.746 0 0 1-1.85-1.857l1.116-24.143c.047-1.072.96-1.973 2.029-2.02l37.789-1.554c1.069-.047 1.904.785 1.849 1.857l-1.116 24.143c-.047 1.072-.96 1.973-2.029 2.02Z" fill="#0E1F3D"></path>
    <path d="m150.906 184.915-38.343 1.577 1.124-24.298 38.342-1.577-1.123 24.298Z" fill="#00BDD3"></path>
    <path opacity=".9" d="m150.906 184.915-38.343 1.577 1.124-24.298 38.342-1.577-1.123 24.298Z" fill="#fff"></path>
    <path opacity=".1" d="m127.295 159.824-6.336 28.206 2.52-.101 6.25-28.206-2.434.101ZM131.18 159.668l-6.336 28.207 5.002-.21 6.25-28.199-4.916.202Z" fill="#fff"></path>
    <path d="m138.46 187.137 12.765-.358c.219 1.477-.413 2.028-1.225 2.052l-4.081.101-2.723.062-4.237.117-26.287.761-.211-1.842 25.999-.893Z" fill="#00BDD3"></path>
    <path d="m138.46 187.136 12.765-.357c.219 1.476-.413 2.028-1.225 2.051l-4.081.101-2.723.062-4.237.117-32.537.995a.948.948 0 0 1-.882-.537.943.943 0 0 1 .819-1.344l32.101-1.088Z" fill="#00BDD3"></path>
    <path opacity=".2" d="m138.46 187.136 12.765-.357c.219 1.476-.413 2.028-1.225 2.051l-4.081.101-2.723.062-4.237.117-32.537.995a.948.948 0 0 1-.882-.537.943.943 0 0 1 .819-1.344l32.101-1.088Z" fill="#000"></path>
    <path opacity=".2" d="m151.226 186.779.078.513a1.35 1.35 0 0 1-1.303 1.538l-4.081.101-7.577.272.125-2.067 12.758-.357ZM85.105 171.347s-1.803 3.66 3.402 13.326l2.176 3.94c.718 1.298 5.494-1.352 6.914-3.784 0 0-9.122-5.455-12.492-13.482Z" fill="#000"></path>
    <path d="m129.244 182.613 3.628-1.064-.585 5.587s-5.064 3.372-6.82.147l.703-1.802a4.925 4.925 0 0 1 3.074-2.868Z" fill="#F6B69E"></path>
    <path d="m137.039 183.748-.453 2.013a1.448 1.448 0 0 1-1.303 1.134l-3.019.234.585-5.587 2.965.466c.788.101 1.35.824 1.241 1.608 0 .047-.008.086-.016.132ZM99.032 192.063c2.528 3.419 6.086 6.27 10.276 7.086 4.932.964 14.42-5.983 18.867-10.482-.226-1.896-.093-2.922-1.997-3.186 0 0-4.892 3.575-14.131 5.719-2.98.692-4.97-2.346-7.576-6.768-1.296-2.207-5.493-11.244-7.077-13.256-2.536-3.232-9.77-.917-6.898 6.861 1.21 3.272 6.468 11.228 8.536 14.026Z" fill="#F6B69E"></path>
    <path d="M96.333 165.885c5.134 4.693 7.631 12.992 7.631 12.992l-11.985 7.273s-8.763-12.246-7.202-16.512c1.233-3.31 3.52-5.486 6.523-5.673 1.865-.108 3.66.661 5.033 1.92ZM68.852 215.079l-.905.023c-.18-.023-.32-.085-.312-.202l.327-3.877c.016-.117.164-.21.344-.218l.905-.023c.18.023.32.093.312.202l-.328 3.885c-.008.109-.164.225-.343.21ZM158.326 228.001l11.673-5.812-.999-4.134-13.312 6.053 2.638 3.893Z" fill="#00BDD3"></path>
    <path opacity=".5" d="m158.326 228.001 11.673-5.812-.999-4.134-13.312 6.053 2.638 3.893Z" fill="#fff"></path>
    <path d="m176.826 232.546-8.053 2.433a.655.655 0 0 0-.484.714l.968 7.273a1.323 1.323 0 0 0 1.522 1.081c.046-.008.093-.016.14-.032 13.452-2.23 17.892-4.685 19.335-5.175 4.128-1.39 2.482-4.429 1.015-4.335-6.586.404-8.638-.35-11.252-1.531-1.397-.49-2.708-.567-3.191-.428ZM68.547 136.668c-2.419.381-4.814-1.469-5.571-3.784-.757-2.316-.133-4.903 1.108-7.009.913-1.554 6.898-5.237 9.121-1.088 4.417 8.26-4.658 11.881-4.658 11.881Z" fill="#0E1F3D"></path>
    <path d="m150.562 168.946-23.604 1.002.11-2.331 23.603-1.002-.109 2.331Z" fill="#00BDD3"></path>
    <path opacity=".7" d="m150.562 168.946-23.604 1.002.11-2.331 23.603-1.002-.109 2.331Z" fill="#fff"></path>
    <path d="m150.422 172.186-23.604.995.102-2.331 23.603-.995-.101 2.331Z" fill="#00BDD3"></path>
    <path opacity=".7" d="m150.422 172.186-23.604.995.102-2.331 23.603-.995-.101 2.331Z" fill="#fff"></path>
    <path d="m150.274 175.419-23.604 1.002.11-2.331 23.603-1.002-.109 2.331Z" fill="#00BDD3"></path>
    <path opacity=".7" d="m150.274 175.419-23.604 1.002.11-2.331 23.603-1.002-.109 2.331Z" fill="#fff"></path>
    <path d="m150.126 178.659-23.604.995.11-2.331 23.603-.995-.109 2.331Z" fill="#00BDD3"></path>
    <path opacity=".7" d="m150.126 178.659-23.604.995.11-2.331 23.603-.995-.109 2.331Z" fill="#fff"></path>
    <path d="m149.985 181.892-23.604 1.003.102-2.331 23.603-1.003-.101 2.331Z" fill="#00BDD3"></path>
    <path opacity=".7" d="m149.985 181.892-23.604 1.003.102-2.331 23.603-1.003-.101 2.331Z" fill="#fff"></path>
    <path d="m117.432 171.25-1.894.082.033.776 1.895-.082-.034-.776Z" fill="#00BDD3"></path>
    <path opacity=".5" d="m117.432 171.25-1.894.082.033.776 1.895-.082-.034-.776Z" fill="#fff"></path>
    <path d="m117.347 173.495-1.895.081.034.777 1.894-.082-.033-.776Z" fill="#00BDD3"></path>
    <path opacity=".5" d="m117.347 173.495-1.895.081.034.777 1.894-.082-.033-.776Z" fill="#fff"></path>
    <path d="m117.251 175.733-1.894.082.033.776 1.895-.081-.034-.777Z" fill="#00BDD3"></path>
    <path opacity=".5" d="m117.251 175.733-1.894.082.033.776 1.895-.081-.034-.777Z" fill="#fff"></path>
    <path d="m117.166 177.979-1.894.082.033.776 1.895-.082-.034-.776Z" fill="#00BDD3"></path>
    <path opacity=".5" d="m117.166 177.979-1.894.082.033.776 1.895-.082-.034-.776Z" fill="#fff"></path>
    <path d="m117.073 180.217-1.894.081.033.777 1.894-.082-.033-.776Z" fill="#00BDD3"></path>
    <path opacity=".5" d="m115.208 181.084.07-.785 1.888-.078-.07.777-1.888.086Z" fill="#fff"></path>
    <path d="m116.982 182.456-1.894.08.033.777 1.894-.08-.033-.777Z" fill="#00BDD3"></path>
    <path opacity=".5" d="m116.982 182.456-1.894.08.033.777 1.894-.08-.033-.777Z" fill="#fff"></path>
    <path d="m119.397 169.109-3.917 1.453.039-1.025 2.17-.35-2.146-.148.039-1.025 3.815 1.095ZM143.313 165.402l-16.355.692.079-1.616 16.354-.692-.078 1.616Z" fill="#00BDD3"></path>
    <path opacity=".7" d="m143.313 165.402-16.355.692.079-1.616 16.354-.692-.078 1.616Z" fill="#fff"></path>
    <path d="m121.247 166.242-2.395.101.967-.614.265.249.289-.257.874.521ZM119.725 165.658l-.967.614.07-1.422.897.808ZM121.403 164.804l-.078 1.352-.882-.513.96-.839Z" fill="#00BDD3"></path>
    <path d="m120.118 165.397-.054.057.006.005.054-.056-.006-.006Z" fill="#fff"></path>
    <path d="m120.072 165.42-.006.005.053.057.006-.006-.053-.056Z" fill="#fff"></path>
    <path d="m121.402 164.672-1.03.932-.289.248-.265-.24-.897-.808-.07-.07 2.551-.062ZM117.44 164.921l-1.894.081.01.232 1.894-.08-.01-.233ZM117.442 165.51l-1.894.081.01.233 1.894-.081-.01-.233ZM117.44 166.111l-1.894.081.01.232 1.894-.08-.01-.233ZM227.365 48.078h-11.368a1.861 1.861 0 0 1-1.865-1.857c0-1.025.835-1.857 1.865-1.857h11.368c1.03 0 1.865.832 1.865 1.857a1.861 1.861 0 0 1-1.865 1.858Z" fill="#00BDD3"></path>
    <path opacity=".7" d="M227.365 48.078h-11.368a1.861 1.861 0 0 1-1.865-1.857c0-1.025.835-1.857 1.865-1.857h11.368c1.03 0 1.865.832 1.865 1.857a1.861 1.861 0 0 1-1.865 1.858Z" fill="#fff"></path>
    <path d="m269.072 86.238-43.587 79.879a2.135 2.135 0 0 1-2.887.847l-74.165-40.134a2.118 2.118 0 0 1-.851-2.875l56.687-103.897a2.137 2.137 0 0 1 2.888-.847l49.976 27.041 11.939 39.986Z" fill="#00BDD3"></path>
    <path opacity=".2" d="m269.072 86.238-43.587 79.879a2.135 2.135 0 0 1-2.887.847l-74.165-40.134a2.118 2.118 0 0 1-.851-2.875l56.687-103.897a2.137 2.137 0 0 1 2.888-.847l49.976 27.041 11.939 39.986Z" fill="#fff"></path>
    <path d="m244.619 104.167-55.391-29.759-1.853 3.42 55.391 29.758 1.853-3.419ZM237.049 118.138l-55.391-29.759-1.852 3.42 55.391 29.758 1.852-3.419ZM229.482 132.109l-55.391-29.758-1.852 3.419 55.391 29.758 1.852-3.419ZM257.196 46.22l-13.14 24.097a2.118 2.118 0 0 0 .851 2.875l24.118 13.054-11.829-40.025Z" fill="#00BDD3"></path>
    <path opacity=".7" d="m257.196 46.22-13.14 24.097a2.118 2.118 0 0 0 .851 2.875l24.118 13.054-11.829-40.025Z" fill="#fff"></path>
    <path d="m280.432 83.55-43.586 79.878a2.135 2.135 0 0 1-2.887.847l-74.166-40.134a2.117 2.117 0 0 1-.85-2.875L215.63 17.369a2.136 2.136 0 0 1 2.887-.847l49.977 27.041 11.938 39.986Z" fill="#00BDD3"></path>
    <path opacity=".5" d="m280.432 83.55-43.586 79.878a2.135 2.135 0 0 1-2.887.847l-74.166-40.134a2.117 2.117 0 0 1-.85-2.875L215.63 17.369a2.136 2.136 0 0 1 2.887-.847l49.977 27.041 11.938 39.986Z" fill="#fff"></path>
    <path d="m254.504 100.683-52.435-28.167a1.693 1.693 0 0 0-2.278.676l-.258.474a1.679 1.679 0 0 0 .679 2.269l52.435 28.167a1.693 1.693 0 0 0 2.278-.676l.257-.474a1.664 1.664 0 0 0-.678-2.269ZM246.935 114.654 194.5 86.487a1.693 1.693 0 0 0-2.278.675l-.258.474a1.68 1.68 0 0 0 .679 2.27l52.435 28.167a1.693 1.693 0 0 0 2.278-.676l.258-.474a1.667 1.667 0 0 0-.679-2.269ZM239.366 128.625l-52.434-28.167a1.693 1.693 0 0 0-2.279.676l-.257.474a1.68 1.68 0 0 0 .679 2.269l52.434 28.167c.82.435 1.834.132 2.279-.676l.257-.474a1.665 1.665 0 0 0-.679-2.269ZM268.565 43.532l-13.148 24.096a2.117 2.117 0 0 0 .85 2.875l24.119 13.054-11.821-40.025Z" fill="#00BDD3"></path>
    <path opacity=".7" d="m268.565 43.532-13.148 24.096a2.117 2.117 0 0 0 .85 2.875l24.119 13.054-11.821-40.025Z" fill="#fff"></path>
    <path d="m265.552 6.911 3.667 16.217c-13.888 3.8-26.35 17.483-35.315 30.42-3.535 5.106-6.531 11.035-8.77 17.305 0 0 28.004-25.23 43.446-26.706l-.734 26.807s16.011-31.058 47.113-42.426c-.008-.008-26.053-18.687-49.407-21.617Z" fill="#F4E041"></path>
    <path d="m76.616 184.083 7.077 80.555H72.285l-7.615-86.686h5.228c3.503 0 6.414 2.658 6.718 6.131Z" fill="#00BDD3"></path>
    <path opacity=".2" d="m76.685 184.806 7.015 79.832H72.292l-7.615-86.686h4.494c3.91 0 7.17 2.976 7.514 6.854Z" fill="#000"></path>
    <path d="m69.203 183.197 7.155 81.441H8.443L1.373 184.2c-.296-3.357 2.365-6.248 5.751-6.248h56.32c3.005 0 5.502 2.277 5.76 5.245Z" fill="#00BDD3"></path>
    <path opacity=".2" d="m69.28 184.083 7.077 80.555H8.442l-6.976-79.382c-.343-3.924 2.763-7.304 6.719-7.304h54.37c3.503 0 6.421 2.658 6.725 6.131Z" fill="#fff"></path>
    <path d="M188.727 264.638H8.756l-1.959-22.34H179.56c3.987 0 7.498 3.217 7.841 7.188l1.327 15.152Z" fill="#00BDD3"></path>
    <path opacity=".2" d="M188.727 264.638H8.756l-1.959-22.34H179.56c3.987 0 7.498 3.217 7.841 7.188l1.327 15.152Z" fill="#fff"></path>
    <path d="M196.981 273.193H6.641c-2.466 0-4.472-1.989-4.472-4.452 0-2.455 1.998-4.452 4.471-4.452h190.341c2.466 0 4.471 1.989 4.471 4.452 0 2.455-2.005 4.452-4.471 4.452Z" fill="#00BDD3"></path>
    <path opacity=".2" d="M196.982 273.193H86.487c-2.466 0-4.471-1.989-4.471-4.452 0-2.455 1.997-4.452 4.47-4.452h110.496c2.465 0 4.471 1.989 4.471 4.452 0 2.455-2.006 4.452-4.471 4.452Z" fill="#000"></path>
    <path d="m9.138 273.193 2.255 7.646h4.51l2.481-7.646H9.138Z" fill="#263238"></path>
    <path opacity=".5" d="m9.138 273.193 2.255 7.646h4.51l2.481-7.646H9.138Z" fill="#fff"></path>
    <path d="m73.768 273.193 2.255 7.646h4.51l2.48-7.646h-9.245Z" fill="#263238"></path>
    <path opacity=".5" d="m73.768 273.193 2.255 7.646h4.51l2.48-7.646h-9.245Z" fill="#fff"></path>
    <path d="m123.238 273.193 2.255 7.646h4.51l2.481-7.646h-9.246Z" fill="#263238"></path>
    <path opacity=".5" d="m123.238 273.193 2.255 7.646h4.51l2.481-7.646h-9.246Z" fill="#fff"></path>
    <path d="m187.868 273.193 2.255 7.646h4.51l2.481-7.646h-9.246Z" fill="#263238"></path>
    <path opacity=".5" d="m187.868 273.193 2.255 7.646h4.51l2.481-7.646h-9.246Z" fill="#fff"></path>
    <path d="M261.432 150.254c0 17.215-13.964 31.171-31.19 31.171-17.225 0-31.189-13.956-31.189-31.171 0-17.216 13.964-31.172 31.189-31.172 17.226 0 31.19 13.956 31.19 31.172Z" fill="#EA5924"></path>
    <path d="m226.212 156.733-5.11-5.107a1.437 1.437 0 0 0-2.045 0 1.436 1.436 0 0 0 0 2.043l6.119 6.114a1.455 1.455 0 0 0 2.059 0l15.478-15.454a1.436 1.436 0 0 0 0-2.043 1.438 1.438 0 0 0-2.045 0l-14.456 14.447Z" fill="#fff"></path>
  </symbol>
</svg>